<mxfile host="app.diagrams.net" modified="2022-05-22T21:02:03.994Z" agent="5.0 (Windows NT 10.0; Win64; x64) AppleWebKit/537.36 (KHTML, like Gecko) Chrome/101.0.4951.54 Safari/537.36" etag="T91MELTEHeXDgQOEsNU_" version="18.0.2" type="github">
  <diagram id="1asJGj1rqI16sWYwbIdo" name="Page-1">
    <mxGraphModel dx="1240" dy="1609" grid="1" gridSize="10" guides="1" tooltips="1" connect="1" arrows="1" fold="1" page="1" pageScale="1" pageWidth="827" pageHeight="1169" math="0" shadow="0">
      <root>
        <mxCell id="0" />
        <mxCell id="1" parent="0" />
        <mxCell id="u8DtL8ykO2mdIZxz_voe-1" value="&lt;font style=&quot;font-size: 24px;&quot;&gt;public class Program&lt;/font&gt;" style="text;html=1;align=center;verticalAlign=middle;resizable=0;points=[];autosize=1;strokeColor=none;fillColor=none;" vertex="1" parent="1">
          <mxGeometry x="10" y="20" width="240" height="20" as="geometry" />
        </mxCell>
        <mxCell id="u8DtL8ykO2mdIZxz_voe-2" value="&lt;span style=&quot;font-size: 19px;&quot;&gt;static void Main(String[] args)&lt;/span&gt;" style="text;html=1;align=center;verticalAlign=middle;resizable=0;points=[];autosize=1;strokeColor=none;fillColor=none;fontSize=19;" vertex="1" parent="1">
          <mxGeometry x="283" y="125" width="260" height="30" as="geometry" />
        </mxCell>
        <mxCell id="u8DtL8ykO2mdIZxz_voe-3" style="edgeStyle=orthogonalEdgeStyle;rounded=0;orthogonalLoop=1;jettySize=auto;html=1;exitX=0.5;exitY=1;exitDx=0;exitDy=0;fontSize=24;entryX=0.5;entryY=0;entryDx=0;entryDy=0;" edge="1" source="u8DtL8ykO2mdIZxz_voe-4" target="u8DtL8ykO2mdIZxz_voe-6" parent="1">
          <mxGeometry relative="1" as="geometry">
            <mxPoint x="135" y="210" as="targetPoint" />
          </mxGeometry>
        </mxCell>
        <mxCell id="u8DtL8ykO2mdIZxz_voe-4" value="Початок" style="ellipse;whiteSpace=wrap;html=1;fontSize=16;strokeWidth=1;" vertex="1" parent="1">
          <mxGeometry x="92.50000000000023" y="139.9999999999999" width="85" height="40" as="geometry" />
        </mxCell>
        <mxCell id="u8DtL8ykO2mdIZxz_voe-5" style="edgeStyle=orthogonalEdgeStyle;rounded=0;orthogonalLoop=1;jettySize=auto;html=1;exitX=0.5;exitY=1;exitDx=0;exitDy=0;entryX=0.5;entryY=0;entryDx=0;entryDy=0;strokeWidth=1;fontSize=24;" edge="1" source="u8DtL8ykO2mdIZxz_voe-6" target="u8DtL8ykO2mdIZxz_voe-7" parent="1">
          <mxGeometry relative="1" as="geometry" />
        </mxCell>
        <mxCell id="u8DtL8ykO2mdIZxz_voe-6" value="&lt;div style=&quot;font-size: 11px;&quot;&gt;&lt;font style=&quot;font-size: 11px;&quot;&gt;static HotelTable bookingTable = new HotelTable();&lt;/font&gt;&lt;/div&gt;&lt;div style=&quot;font-size: 11px;&quot;&gt;&lt;font style=&quot;font-size: 11px;&quot;&gt;&amp;nbsp; &amp;nbsp; &amp;nbsp; &amp;nbsp; static DeparturesTable departuresTable = new DeparturesTable();&lt;/font&gt;&lt;/div&gt;&lt;div style=&quot;font-size: 11px;&quot;&gt;&lt;font style=&quot;font-size: 11px;&quot;&gt;&amp;nbsp; &amp;nbsp; &amp;nbsp; &amp;nbsp; static Random random = new Random();&lt;/font&gt;&lt;/div&gt;&lt;div style=&quot;font-size: 11px;&quot;&gt;&lt;font style=&quot;font-size: 11px;&quot;&gt;&amp;nbsp; &amp;nbsp; &amp;nbsp; &amp;nbsp; static string[] RoomTypes = { &quot;lux&quot;, &quot;double&quot;, &quot;single&quot;, &quot;aprtments&quot;, &quot;royal&quot;, &quot;econom&quot; };&lt;/font&gt;&lt;/div&gt;" style="rounded=1;whiteSpace=wrap;html=1;sketch=0;fontSize=11;" vertex="1" parent="1">
          <mxGeometry y="230" width="268.75" height="120" as="geometry" />
        </mxCell>
        <mxCell id="u8DtL8ykO2mdIZxz_voe-7" value="кінець" style="ellipse;whiteSpace=wrap;html=1;rounded=1;sketch=0;fontSize=12;" vertex="1" parent="1">
          <mxGeometry x="86.70000000000005" y="420" width="95.35" height="30" as="geometry" />
        </mxCell>
        <mxCell id="u8DtL8ykO2mdIZxz_voe-9" style="edgeStyle=orthogonalEdgeStyle;rounded=0;orthogonalLoop=1;jettySize=auto;html=1;exitX=0.5;exitY=1;exitDx=0;exitDy=0;fontSize=24;entryX=0.5;entryY=0;entryDx=0;entryDy=0;" edge="1" source="u8DtL8ykO2mdIZxz_voe-10" target="u8DtL8ykO2mdIZxz_voe-12" parent="1">
          <mxGeometry relative="1" as="geometry">
            <mxPoint x="412.5" y="255" as="targetPoint" />
          </mxGeometry>
        </mxCell>
        <mxCell id="u8DtL8ykO2mdIZxz_voe-10" value="Початок" style="ellipse;whiteSpace=wrap;html=1;fontSize=16;strokeWidth=1;" vertex="1" parent="1">
          <mxGeometry x="370.0000000000002" y="184.9999999999999" width="85" height="40" as="geometry" />
        </mxCell>
        <mxCell id="u8DtL8ykO2mdIZxz_voe-15" style="edgeStyle=orthogonalEdgeStyle;rounded=0;orthogonalLoop=1;jettySize=auto;html=1;exitX=0.5;exitY=1;exitDx=0;exitDy=0;fontSize=11;endArrow=none;endFill=0;entryX=0.5;entryY=0;entryDx=0;entryDy=0;" edge="1" parent="1" source="u8DtL8ykO2mdIZxz_voe-12" target="u8DtL8ykO2mdIZxz_voe-19">
          <mxGeometry relative="1" as="geometry">
            <mxPoint x="413" y="350.000588235294" as="targetPoint" />
          </mxGeometry>
        </mxCell>
        <mxCell id="u8DtL8ykO2mdIZxz_voe-12" value="&lt;div style=&quot;font-size: 11px;&quot;&gt;&lt;font style=&quot;font-size: 11px;&quot;&gt;&amp;nbsp;WriteLine(&quot;Hotel booking&quot;);&lt;/font&gt;&lt;/div&gt;&lt;div style=&quot;font-size: 11px;&quot;&gt;&lt;font style=&quot;font-size: 11px;&quot;&gt;&amp;nbsp; &amp;nbsp; &amp;nbsp; &amp;nbsp; &amp;nbsp; &amp;nbsp; string commnad = &quot;help&quot;;&lt;/font&gt;&lt;/div&gt;" style="rounded=1;whiteSpace=wrap;html=1;sketch=0;fontSize=11;" vertex="1" parent="1">
          <mxGeometry x="330" y="275" width="165" height="40" as="geometry" />
        </mxCell>
        <mxCell id="u8DtL8ykO2mdIZxz_voe-14" value="" style="endArrow=none;html=1;rounded=0;fontSize=19;" edge="1" parent="1">
          <mxGeometry width="50" height="50" relative="1" as="geometry">
            <mxPoint x="280" y="1160" as="sourcePoint" />
            <mxPoint x="280" y="80" as="targetPoint" />
          </mxGeometry>
        </mxCell>
        <mxCell id="u8DtL8ykO2mdIZxz_voe-17" value="ТАК" style="edgeStyle=orthogonalEdgeStyle;rounded=0;orthogonalLoop=1;jettySize=auto;html=1;exitX=0;exitY=0.5;exitDx=0;exitDy=0;fontFamily=Helvetica;fontSize=18;fontColor=default;endArrow=classicThin;endFill=0;strokeWidth=1;" edge="1" source="u8DtL8ykO2mdIZxz_voe-19" parent="1" target="u8DtL8ykO2mdIZxz_voe-62">
          <mxGeometry relative="1" as="geometry">
            <mxPoint x="340" y="640" as="targetPoint" />
          </mxGeometry>
        </mxCell>
        <mxCell id="u8DtL8ykO2mdIZxz_voe-18" value="НІ" style="edgeStyle=orthogonalEdgeStyle;rounded=0;orthogonalLoop=1;jettySize=auto;html=1;exitX=1;exitY=0.5;exitDx=0;exitDy=0;fontFamily=Helvetica;fontSize=18;fontColor=default;endArrow=classic;endFill=0;strokeWidth=1;entryX=0.5;entryY=0;entryDx=0;entryDy=0;" edge="1" source="u8DtL8ykO2mdIZxz_voe-19" parent="1" target="u8DtL8ykO2mdIZxz_voe-25">
          <mxGeometry relative="1" as="geometry">
            <mxPoint x="582" y="484" as="targetPoint" />
          </mxGeometry>
        </mxCell>
        <mxCell id="u8DtL8ykO2mdIZxz_voe-19" value="commnad != &quot;exit&quot;" style="rhombus;whiteSpace=wrap;html=1;rounded=1;sketch=0;fontFamily=Helvetica;fontSize=18;fontColor=default;strokeColor=default;fillColor=default;" vertex="1" parent="1">
          <mxGeometry x="380" y="370" width="180" height="70" as="geometry" />
        </mxCell>
        <mxCell id="u8DtL8ykO2mdIZxz_voe-23" value="ТАК" style="edgeStyle=orthogonalEdgeStyle;rounded=0;orthogonalLoop=1;jettySize=auto;html=1;exitX=0;exitY=0.5;exitDx=0;exitDy=0;fontFamily=Helvetica;fontSize=18;fontColor=default;endArrow=classicThin;endFill=0;strokeWidth=1;entryX=0.5;entryY=0;entryDx=0;entryDy=0;" edge="1" source="u8DtL8ykO2mdIZxz_voe-25" parent="1" target="u8DtL8ykO2mdIZxz_voe-57">
          <mxGeometry relative="1" as="geometry">
            <mxPoint x="466" y="585" as="targetPoint" />
          </mxGeometry>
        </mxCell>
        <mxCell id="u8DtL8ykO2mdIZxz_voe-24" value="НІ" style="edgeStyle=orthogonalEdgeStyle;rounded=0;orthogonalLoop=1;jettySize=auto;html=1;exitX=1;exitY=0.5;exitDx=0;exitDy=0;fontFamily=Helvetica;fontSize=18;fontColor=default;endArrow=classic;endFill=0;strokeWidth=1;" edge="1" source="u8DtL8ykO2mdIZxz_voe-25" parent="1" target="u8DtL8ykO2mdIZxz_voe-28">
          <mxGeometry relative="1" as="geometry">
            <mxPoint x="696" y="600" as="targetPoint" />
          </mxGeometry>
        </mxCell>
        <mxCell id="u8DtL8ykO2mdIZxz_voe-25" value="case &quot;clear&quot;" style="rhombus;whiteSpace=wrap;html=1;rounded=1;sketch=0;fontFamily=Helvetica;fontSize=18;fontColor=default;strokeColor=default;fillColor=default;" vertex="1" parent="1">
          <mxGeometry x="516" y="500" width="130" height="70" as="geometry" />
        </mxCell>
        <mxCell id="u8DtL8ykO2mdIZxz_voe-26" value="ТАК" style="edgeStyle=orthogonalEdgeStyle;rounded=0;orthogonalLoop=1;jettySize=auto;html=1;exitX=0;exitY=0.5;exitDx=0;exitDy=0;fontFamily=Helvetica;fontSize=18;fontColor=default;endArrow=classicThin;endFill=0;strokeWidth=1;" edge="1" source="u8DtL8ykO2mdIZxz_voe-28" parent="1" target="u8DtL8ykO2mdIZxz_voe-54">
          <mxGeometry relative="1" as="geometry">
            <mxPoint x="566" y="700" as="targetPoint" />
          </mxGeometry>
        </mxCell>
        <mxCell id="u8DtL8ykO2mdIZxz_voe-27" value="НІ" style="edgeStyle=orthogonalEdgeStyle;rounded=0;orthogonalLoop=1;jettySize=auto;html=1;exitX=1;exitY=0.5;exitDx=0;exitDy=0;fontFamily=Helvetica;fontSize=18;fontColor=default;endArrow=classic;endFill=0;strokeWidth=1;" edge="1" source="u8DtL8ykO2mdIZxz_voe-28" parent="1" target="u8DtL8ykO2mdIZxz_voe-31">
          <mxGeometry relative="1" as="geometry">
            <mxPoint x="826" y="700" as="targetPoint" />
          </mxGeometry>
        </mxCell>
        <mxCell id="u8DtL8ykO2mdIZxz_voe-28" value="case &quot;show&quot;" style="rhombus;whiteSpace=wrap;html=1;rounded=1;sketch=0;fontFamily=Helvetica;fontSize=18;fontColor=default;strokeColor=default;fillColor=default;" vertex="1" parent="1">
          <mxGeometry x="632" y="600" width="130" height="70" as="geometry" />
        </mxCell>
        <mxCell id="u8DtL8ykO2mdIZxz_voe-29" value="ТАК" style="edgeStyle=orthogonalEdgeStyle;rounded=0;orthogonalLoop=1;jettySize=auto;html=1;exitX=0;exitY=0.5;exitDx=0;exitDy=0;fontFamily=Helvetica;fontSize=18;fontColor=default;endArrow=classicThin;endFill=0;strokeWidth=1;" edge="1" source="u8DtL8ykO2mdIZxz_voe-31" parent="1" target="u8DtL8ykO2mdIZxz_voe-51">
          <mxGeometry relative="1" as="geometry">
            <mxPoint x="673" y="800" as="targetPoint" />
          </mxGeometry>
        </mxCell>
        <mxCell id="u8DtL8ykO2mdIZxz_voe-30" value="НІ" style="edgeStyle=orthogonalEdgeStyle;rounded=0;orthogonalLoop=1;jettySize=auto;html=1;exitX=1;exitY=0.5;exitDx=0;exitDy=0;fontFamily=Helvetica;fontSize=18;fontColor=default;endArrow=classic;endFill=0;strokeWidth=1;entryX=0.5;entryY=0;entryDx=0;entryDy=0;" edge="1" source="u8DtL8ykO2mdIZxz_voe-31" parent="1" target="u8DtL8ykO2mdIZxz_voe-35">
          <mxGeometry relative="1" as="geometry">
            <mxPoint x="946" y="800" as="targetPoint" />
          </mxGeometry>
        </mxCell>
        <mxCell id="u8DtL8ykO2mdIZxz_voe-31" value="case &quot;add&quot;" style="rhombus;whiteSpace=wrap;html=1;rounded=1;sketch=0;fontFamily=Helvetica;fontSize=18;fontColor=default;strokeColor=default;fillColor=default;" vertex="1" parent="1">
          <mxGeometry x="763" y="700" width="130" height="70" as="geometry" />
        </mxCell>
        <mxCell id="u8DtL8ykO2mdIZxz_voe-33" value="ТАК" style="edgeStyle=orthogonalEdgeStyle;rounded=0;orthogonalLoop=1;jettySize=auto;html=1;exitX=0;exitY=0.5;exitDx=0;exitDy=0;fontFamily=Helvetica;fontSize=18;fontColor=default;endArrow=classicThin;endFill=0;strokeWidth=1;" edge="1" source="u8DtL8ykO2mdIZxz_voe-35" parent="1" target="u8DtL8ykO2mdIZxz_voe-48">
          <mxGeometry relative="1" as="geometry">
            <mxPoint x="788" y="900" as="targetPoint" />
          </mxGeometry>
        </mxCell>
        <mxCell id="u8DtL8ykO2mdIZxz_voe-34" value="НІ" style="edgeStyle=orthogonalEdgeStyle;rounded=0;orthogonalLoop=1;jettySize=auto;html=1;exitX=1;exitY=0.5;exitDx=0;exitDy=0;fontFamily=Helvetica;fontSize=18;fontColor=default;endArrow=classic;endFill=0;strokeWidth=1;entryX=0.5;entryY=0;entryDx=0;entryDy=0;" edge="1" source="u8DtL8ykO2mdIZxz_voe-35" parent="1" target="u8DtL8ykO2mdIZxz_voe-38">
          <mxGeometry relative="1" as="geometry">
            <mxPoint x="1046" y="900" as="targetPoint" />
          </mxGeometry>
        </mxCell>
        <mxCell id="u8DtL8ykO2mdIZxz_voe-35" value="case &quot;remove&quot;" style="rhombus;whiteSpace=wrap;html=1;rounded=1;sketch=0;fontFamily=Helvetica;fontSize=18;fontColor=default;strokeColor=default;fillColor=default;" vertex="1" parent="1">
          <mxGeometry x="866" y="800" width="142" height="70" as="geometry" />
        </mxCell>
        <mxCell id="u8DtL8ykO2mdIZxz_voe-36" value="ТАК" style="edgeStyle=orthogonalEdgeStyle;rounded=0;orthogonalLoop=1;jettySize=auto;html=1;exitX=0;exitY=0.5;exitDx=0;exitDy=0;fontFamily=Helvetica;fontSize=18;fontColor=default;endArrow=classicThin;endFill=0;strokeWidth=1;" edge="1" source="u8DtL8ykO2mdIZxz_voe-38" parent="1" target="u8DtL8ykO2mdIZxz_voe-45">
          <mxGeometry relative="1" as="geometry">
            <mxPoint x="921" y="1000" as="targetPoint" />
          </mxGeometry>
        </mxCell>
        <mxCell id="u8DtL8ykO2mdIZxz_voe-37" value="НІ" style="edgeStyle=orthogonalEdgeStyle;rounded=0;orthogonalLoop=1;jettySize=auto;html=1;exitX=1;exitY=0.5;exitDx=0;exitDy=0;fontFamily=Helvetica;fontSize=18;fontColor=default;endArrow=classic;endFill=0;strokeWidth=1;" edge="1" source="u8DtL8ykO2mdIZxz_voe-38" parent="1" target="u8DtL8ykO2mdIZxz_voe-41">
          <mxGeometry relative="1" as="geometry">
            <mxPoint x="1166" y="1000" as="targetPoint" />
          </mxGeometry>
        </mxCell>
        <mxCell id="u8DtL8ykO2mdIZxz_voe-38" value="case &quot;departure&quot;" style="rhombus;whiteSpace=wrap;html=1;rounded=1;sketch=0;fontFamily=Helvetica;fontSize=18;fontColor=default;strokeColor=default;fillColor=default;" vertex="1" parent="1">
          <mxGeometry x="956" y="900" width="160" height="70" as="geometry" />
        </mxCell>
        <mxCell id="u8DtL8ykO2mdIZxz_voe-39" value="ТАК" style="edgeStyle=orthogonalEdgeStyle;rounded=0;orthogonalLoop=1;jettySize=auto;html=1;exitX=0;exitY=0.5;exitDx=0;exitDy=0;fontFamily=Helvetica;fontSize=18;fontColor=default;endArrow=classicThin;endFill=0;strokeWidth=1;" edge="1" source="u8DtL8ykO2mdIZxz_voe-41" parent="1" target="u8DtL8ykO2mdIZxz_voe-42">
          <mxGeometry relative="1" as="geometry">
            <mxPoint x="1008" y="1100" as="targetPoint" />
          </mxGeometry>
        </mxCell>
        <mxCell id="u8DtL8ykO2mdIZxz_voe-40" value="НІ" style="edgeStyle=orthogonalEdgeStyle;rounded=0;orthogonalLoop=1;jettySize=auto;html=1;exitX=1;exitY=0.5;exitDx=0;exitDy=0;fontFamily=Helvetica;fontSize=18;fontColor=default;endArrow=classic;endFill=0;strokeWidth=1;" edge="1" source="u8DtL8ykO2mdIZxz_voe-41" parent="1" target="u8DtL8ykO2mdIZxz_voe-67">
          <mxGeometry relative="1" as="geometry">
            <mxPoint x="1260" y="1110" as="targetPoint" />
          </mxGeometry>
        </mxCell>
        <mxCell id="u8DtL8ykO2mdIZxz_voe-41" value="&amp;nbsp;case &quot;exit&quot;" style="rhombus;whiteSpace=wrap;html=1;rounded=1;sketch=0;fontFamily=Helvetica;fontSize=18;fontColor=default;strokeColor=default;fillColor=default;" vertex="1" parent="1">
          <mxGeometry x="1098" y="1010" width="130" height="70" as="geometry" />
        </mxCell>
        <mxCell id="u8DtL8ykO2mdIZxz_voe-42" value="&lt;font style=&quot;font-size: 31px&quot;&gt;1&lt;/font&gt;" style="ellipse;whiteSpace=wrap;html=1;aspect=fixed;rounded=1;sketch=0;fontFamily=Helvetica;fontSize=16;fontColor=default;strokeColor=default;fillColor=default;" vertex="1" parent="1">
          <mxGeometry x="1026" y="1090" width="52" height="52" as="geometry" />
        </mxCell>
        <mxCell id="u8DtL8ykO2mdIZxz_voe-46" style="edgeStyle=orthogonalEdgeStyle;rounded=0;orthogonalLoop=1;jettySize=auto;html=1;exitX=0.5;exitY=1;exitDx=0;exitDy=0;fontSize=11;endArrow=classic;endFill=0;" edge="1" parent="1" source="u8DtL8ykO2mdIZxz_voe-45" target="u8DtL8ykO2mdIZxz_voe-47">
          <mxGeometry relative="1" as="geometry">
            <mxPoint x="918.5294117647059" y="1020" as="targetPoint" />
          </mxGeometry>
        </mxCell>
        <mxCell id="u8DtL8ykO2mdIZxz_voe-45" value="&amp;nbsp;onDeparture()" style="shape=process;whiteSpace=wrap;html=1;backgroundOutline=1;fontSize=11;rounded=1;" vertex="1" parent="1">
          <mxGeometry x="856" y="970" width="125" height="30" as="geometry" />
        </mxCell>
        <mxCell id="u8DtL8ykO2mdIZxz_voe-47" value="&lt;font style=&quot;font-size: 31px&quot;&gt;1&lt;/font&gt;" style="ellipse;whiteSpace=wrap;html=1;aspect=fixed;rounded=1;sketch=0;fontFamily=Helvetica;fontSize=16;fontColor=default;strokeColor=default;fillColor=default;" vertex="1" parent="1">
          <mxGeometry x="892.9994117647059" y="1028" width="52" height="52" as="geometry" />
        </mxCell>
        <mxCell id="u8DtL8ykO2mdIZxz_voe-49" style="edgeStyle=orthogonalEdgeStyle;rounded=0;orthogonalLoop=1;jettySize=auto;html=1;exitX=0.5;exitY=1;exitDx=0;exitDy=0;fontSize=11;endArrow=classic;endFill=0;" edge="1" parent="1" source="u8DtL8ykO2mdIZxz_voe-48" target="u8DtL8ykO2mdIZxz_voe-50">
          <mxGeometry relative="1" as="geometry">
            <mxPoint x="787.9411764705883" y="940" as="targetPoint" />
          </mxGeometry>
        </mxCell>
        <mxCell id="u8DtL8ykO2mdIZxz_voe-48" value="onRemove()" style="shape=process;whiteSpace=wrap;html=1;backgroundOutline=1;fontSize=11;rounded=1;" vertex="1" parent="1">
          <mxGeometry x="725.5" y="885" width="125" height="30" as="geometry" />
        </mxCell>
        <mxCell id="u8DtL8ykO2mdIZxz_voe-50" value="&lt;font style=&quot;font-size: 31px&quot;&gt;1&lt;/font&gt;" style="ellipse;whiteSpace=wrap;html=1;aspect=fixed;rounded=1;sketch=0;fontFamily=Helvetica;fontSize=16;fontColor=default;strokeColor=default;fillColor=default;" vertex="1" parent="1">
          <mxGeometry x="762.0011764705882" y="940" width="52" height="52" as="geometry" />
        </mxCell>
        <mxCell id="u8DtL8ykO2mdIZxz_voe-52" style="edgeStyle=orthogonalEdgeStyle;rounded=0;orthogonalLoop=1;jettySize=auto;html=1;exitX=0.5;exitY=1;exitDx=0;exitDy=0;fontSize=11;endArrow=classic;endFill=0;" edge="1" parent="1" source="u8DtL8ykO2mdIZxz_voe-51" target="u8DtL8ykO2mdIZxz_voe-53">
          <mxGeometry relative="1" as="geometry">
            <mxPoint x="672.6470588235295" y="840" as="targetPoint" />
          </mxGeometry>
        </mxCell>
        <mxCell id="u8DtL8ykO2mdIZxz_voe-51" value="onAdd()" style="shape=process;whiteSpace=wrap;html=1;backgroundOutline=1;fontSize=11;rounded=1;" vertex="1" parent="1">
          <mxGeometry x="610.5" y="785" width="125" height="30" as="geometry" />
        </mxCell>
        <mxCell id="u8DtL8ykO2mdIZxz_voe-53" value="&lt;font style=&quot;font-size: 31px&quot;&gt;1&lt;/font&gt;" style="ellipse;whiteSpace=wrap;html=1;aspect=fixed;rounded=1;sketch=0;fontFamily=Helvetica;fontSize=16;fontColor=default;strokeColor=default;fillColor=default;" vertex="1" parent="1">
          <mxGeometry x="648.3199999999999" y="850.65" width="49.35" height="49.35" as="geometry" />
        </mxCell>
        <mxCell id="u8DtL8ykO2mdIZxz_voe-55" style="edgeStyle=orthogonalEdgeStyle;rounded=0;orthogonalLoop=1;jettySize=auto;html=1;exitX=0.5;exitY=1;exitDx=0;exitDy=0;fontSize=11;endArrow=classic;endFill=0;" edge="1" parent="1" source="u8DtL8ykO2mdIZxz_voe-54" target="u8DtL8ykO2mdIZxz_voe-56">
          <mxGeometry relative="1" as="geometry">
            <mxPoint x="565.5882352941176" y="740" as="targetPoint" />
          </mxGeometry>
        </mxCell>
        <mxCell id="u8DtL8ykO2mdIZxz_voe-54" value="onShow()" style="shape=process;whiteSpace=wrap;html=1;backgroundOutline=1;fontSize=11;rounded=1;" vertex="1" parent="1">
          <mxGeometry x="503.5" y="685" width="125" height="30" as="geometry" />
        </mxCell>
        <mxCell id="u8DtL8ykO2mdIZxz_voe-56" value="&lt;font style=&quot;font-size: 31px&quot;&gt;1&lt;/font&gt;" style="ellipse;whiteSpace=wrap;html=1;aspect=fixed;rounded=1;sketch=0;fontFamily=Helvetica;fontSize=16;fontColor=default;strokeColor=default;fillColor=default;" vertex="1" parent="1">
          <mxGeometry x="539.9982352941175" y="740" width="52" height="52" as="geometry" />
        </mxCell>
        <mxCell id="u8DtL8ykO2mdIZxz_voe-58" style="edgeStyle=orthogonalEdgeStyle;rounded=0;orthogonalLoop=1;jettySize=auto;html=1;exitX=0.5;exitY=1;exitDx=0;exitDy=0;fontSize=11;endArrow=classic;endFill=0;" edge="1" parent="1" target="u8DtL8ykO2mdIZxz_voe-59">
          <mxGeometry relative="1" as="geometry">
            <mxPoint x="465.58823529411757" y="650" as="targetPoint" />
            <mxPoint x="466" y="615" as="sourcePoint" />
          </mxGeometry>
        </mxCell>
        <mxCell id="u8DtL8ykO2mdIZxz_voe-57" value="clearTables()" style="shape=process;whiteSpace=wrap;html=1;backgroundOutline=1;fontSize=11;rounded=1;" vertex="1" parent="1">
          <mxGeometry x="403.5" y="585" width="125" height="30" as="geometry" />
        </mxCell>
        <mxCell id="u8DtL8ykO2mdIZxz_voe-59" value="&lt;font style=&quot;font-size: 31px&quot;&gt;1&lt;/font&gt;" style="ellipse;whiteSpace=wrap;html=1;aspect=fixed;rounded=1;sketch=0;fontFamily=Helvetica;fontSize=16;fontColor=default;strokeColor=default;fillColor=default;" vertex="1" parent="1">
          <mxGeometry x="439.99823529411753" y="633" width="52" height="52" as="geometry" />
        </mxCell>
        <mxCell id="u8DtL8ykO2mdIZxz_voe-63" style="edgeStyle=orthogonalEdgeStyle;rounded=0;orthogonalLoop=1;jettySize=auto;html=1;exitX=0.5;exitY=1;exitDx=0;exitDy=0;fontSize=11;endArrow=classic;endFill=0;" edge="1" parent="1" source="u8DtL8ykO2mdIZxz_voe-62" target="u8DtL8ykO2mdIZxz_voe-64">
          <mxGeometry relative="1" as="geometry">
            <mxPoint x="355.7142857142858" y="910" as="targetPoint" />
          </mxGeometry>
        </mxCell>
        <mxCell id="u8DtL8ykO2mdIZxz_voe-62" value="&lt;div&gt;Write(&quot;&amp;gt; &quot;);&lt;/div&gt;&lt;div style=&quot;&quot;&gt;&amp;nbsp;commnad = ReadLine().Trim().ToLower()&lt;/div&gt;" style="rounded=1;whiteSpace=wrap;html=1;fontSize=11;" vertex="1" parent="1">
          <mxGeometry x="280" y="760" width="150" height="70" as="geometry" />
        </mxCell>
        <mxCell id="u8DtL8ykO2mdIZxz_voe-64" value="кінець" style="ellipse;whiteSpace=wrap;html=1;rounded=1;sketch=0;fontSize=12;" vertex="1" parent="1">
          <mxGeometry x="308.03928571428577" y="895" width="95.35" height="30" as="geometry" />
        </mxCell>
        <mxCell id="u8DtL8ykO2mdIZxz_voe-66" style="edgeStyle=orthogonalEdgeStyle;rounded=0;orthogonalLoop=1;jettySize=auto;html=1;exitX=0;exitY=0.5;exitDx=0;exitDy=0;fontSize=11;endArrow=classic;endFill=0;" edge="1" parent="1" source="u8DtL8ykO2mdIZxz_voe-65" target="u8DtL8ykO2mdIZxz_voe-64">
          <mxGeometry relative="1" as="geometry" />
        </mxCell>
        <mxCell id="u8DtL8ykO2mdIZxz_voe-65" value="&lt;font style=&quot;font-size: 31px&quot;&gt;1&lt;/font&gt;" style="ellipse;whiteSpace=wrap;html=1;aspect=fixed;rounded=1;sketch=0;fontFamily=Helvetica;fontSize=16;fontColor=default;strokeColor=default;fillColor=default;" vertex="1" parent="1">
          <mxGeometry x="503.5" y="884" width="52" height="52" as="geometry" />
        </mxCell>
        <mxCell id="u8DtL8ykO2mdIZxz_voe-67" value="&lt;font style=&quot;font-size: 31px&quot;&gt;1&lt;/font&gt;" style="ellipse;whiteSpace=wrap;html=1;aspect=fixed;rounded=1;sketch=0;fontFamily=Helvetica;fontSize=16;fontColor=default;strokeColor=default;fillColor=default;" vertex="1" parent="1">
          <mxGeometry x="1241" y="1098" width="58" height="58" as="geometry" />
        </mxCell>
      </root>
    </mxGraphModel>
  </diagram>
</mxfile>
